<?xml version="1.0" encoding="UTF-8" standalone="no"?>
<svg
   xmlns:dc="http://purl.org/dc/elements/1.1/"
   xmlns:cc="http://creativecommons.org/ns#"
   xmlns:rdf="http://www.w3.org/1999/02/22-rdf-syntax-ns#"
   xmlns:svg="http://www.w3.org/2000/svg"
   xmlns="http://www.w3.org/2000/svg"
   xmlns:sodipodi="http://sodipodi.sourceforge.net/DTD/sodipodi-0.dtd"
   xmlns:inkscape="http://www.inkscape.org/namespaces/inkscape"
   role="img"
   viewBox="-4.68 -3.18 151.9981 27.614"
   version="1.1"
   id="svg6"
   sodipodi:docname="prometheus-horizontal-color.svg"
   width="151.99809"
   height="27.614"
   inkscape:version="1.0.2-2 (e86c870879, 2021-01-15)">
  <metadata
     id="metadata12">
    <rdf:RDF>
      <cc:Work
         rdf:about="">
        <dc:format>image/svg+xml</dc:format>
        <dc:type
           rdf:resource="http://purl.org/dc/dcmitype/StillImage" />
        <dc:title></dc:title>
      </cc:Work>
    </rdf:RDF>
  </metadata>
  <defs
     id="defs10" />
  <sodipodi:namedview
     pagecolor="#ffffff"
     bordercolor="#666666"
     borderopacity="1"
     objecttolerance="10"
     gridtolerance="10"
     guidetolerance="10"
     inkscape:pageopacity="0"
     inkscape:pageshadow="2"
     inkscape:window-width="1920"
     inkscape:window-height="1017"
     id="namedview8"
     showgrid="false"
     fit-margin-top="1"
     fit-margin-left="1"
     fit-margin-right="1"
     fit-margin-bottom="1"
     inkscape:zoom="1"
     inkscape:cx="211.542"
     inkscape:cy="36.869001"
     inkscape:window-x="-8"
     inkscape:window-y="-8"
     inkscape:window-maximized="1"
     inkscape:current-layer="svg6" />
  <g
     id="g839"
     transform="matrix(0.3558834,0,0,0.3558834,-5.0885833,-4.0505229)"
     style="stroke-width:2.80991">
    <path
       fill="#9c9c9d"
       d="m 107.934,45.577 v 17.029 h -3.047 V 20.332 h 10.904 c 4.959,0 8.698,1.085 11.218,3.256 2.519,2.172 3.78,5.268 3.78,9.291 0,1.853 -0.343,3.555 -1.032,5.109 a 11.343,11.343 0 0 1 -2.972,4.018 c -1.296,1.126 -2.868,2.003 -4.72,2.629 -1.852,0.628 -3.943,0.942 -6.274,0.942 z m 0,-2.451 h 7.857 c 1.871,0 3.546,-0.259 5.019,-0.777 1.473,-0.518 2.723,-1.234 3.75,-2.15 a 9.337,9.337 0 0 0 2.359,-3.242 c 0.547,-1.245 0.822,-2.604 0.822,-4.078 0,-3.245 -1.002,-5.745 -3.003,-7.499 -2.002,-1.752 -4.984,-2.628 -8.947,-2.628 h -7.857 z m 33.01,19.479 V 32.879 h 1.495 c 0.338,0 0.583,0.07 0.731,0.209 0.15,0.14 0.234,0.378 0.255,0.717 l 0.238,6.273 c 0.956,-2.409 2.23,-4.297 3.825,-5.662 1.593,-1.363 3.554,-2.047 5.885,-2.047 0.896,0 1.722,0.095 2.479,0.284 a 9.531,9.531 0 0 1 2.151,0.821 l -0.389,1.972 c -0.058,0.32 -0.259,0.478 -0.597,0.478 -0.12,0 -0.289,-0.04 -0.507,-0.119 -0.22,-0.08 -0.493,-0.169 -0.822,-0.269 a 9.853,9.853 0 0 0 -2.853,-0.388 c -2.25,0 -4.098,0.697 -5.542,2.091 -1.444,1.394 -2.614,3.406 -3.51,6.035 v 19.33 h -2.839 z m 38.151,-30.204 c 2.13,0 4.037,0.364 5.721,1.091 1.683,0.727 3.102,1.758 4.257,3.092 1.155,1.334 2.035,2.943 2.644,4.825 0.607,1.883 0.91,3.989 0.91,6.32 0,2.329 -0.303,4.431 -0.91,6.302 -0.609,1.873 -1.489,3.477 -2.644,4.811 -1.155,1.334 -2.574,2.359 -4.257,3.076 -1.685,0.718 -3.591,1.076 -5.721,1.076 -2.132,0 -4.038,-0.357 -5.721,-1.076 -1.683,-0.717 -3.107,-1.741 -4.273,-3.076 -1.165,-1.334 -2.051,-2.938 -2.658,-4.811 -0.607,-1.871 -0.912,-3.973 -0.912,-6.302 0,-2.331 0.305,-4.437 0.912,-6.32 0.607,-1.882 1.493,-3.49 2.658,-4.825 1.165,-1.334 2.59,-2.365 4.273,-3.092 1.683,-0.727 3.589,-1.091 5.721,-1.091 z m 0,28.352 c 1.773,0 3.32,-0.305 4.646,-0.912 a 8.79,8.79 0 0 0 3.315,-2.614 c 0.887,-1.135 1.549,-2.503 1.988,-4.107 0.438,-1.604 0.657,-3.401 0.657,-5.392 0,-1.972 -0.218,-3.766 -0.657,-5.379 -0.438,-1.613 -1.1,-2.992 -1.988,-4.137 a 8.868,8.868 0 0 0 -3.315,-2.644 c -1.326,-0.617 -2.873,-0.926 -4.646,-0.926 -1.773,0 -3.322,0.309 -4.646,0.926 a 8.883,8.883 0 0 0 -3.317,2.644 c -0.886,1.145 -1.553,2.524 -2.002,4.137 -0.447,1.613 -0.673,3.407 -0.673,5.379 0,1.991 0.225,3.788 0.673,5.392 0.449,1.604 1.116,2.972 2.002,4.107 a 8.79,8.79 0 0 0 3.317,2.614 c 1.324,0.608 2.873,0.912 4.646,0.912 z m 23.391,1.852 V 32.879 h 1.554 c 0.518,0 0.815,0.25 0.896,0.747 l 0.268,4.302 a 18.591,18.591 0 0 1 1.854,-2.24 12.373,12.373 0 0 1 2.105,-1.748 9.728,9.728 0 0 1 2.391,-1.135 8.767,8.767 0 0 1 2.672,-0.404 c 2.171,0 3.905,0.633 5.199,1.898 1.296,1.265 2.171,3.022 2.63,5.273 0.357,-1.235 0.859,-2.3 1.505,-3.197 a 9.442,9.442 0 0 1 2.222,-2.225 9.26,9.26 0 0 1 2.73,-1.314 10.689,10.689 0 0 1 3.028,-0.434 c 1.47,0 2.793,0.245 3.965,0.732 a 7.946,7.946 0 0 1 3,2.166 c 0.824,0.956 1.454,2.131 1.894,3.525 0.437,1.394 0.655,2.987 0.655,4.78 v 19.001 h -2.838 V 43.604 c 0,-2.907 -0.627,-5.124 -1.884,-6.647 -1.253,-1.524 -3.046,-2.285 -5.376,-2.285 a 7.912,7.912 0 0 0 -2.973,0.568 7.215,7.215 0 0 0 -2.509,1.687 c -0.727,0.747 -1.304,1.679 -1.734,2.794 -0.428,1.115 -0.641,2.41 -0.641,3.884 v 19.001 h -2.84 V 43.604 c 0,-2.888 -0.577,-5.098 -1.732,-6.632 -1.155,-1.533 -2.838,-2.3 -5.049,-2.3 -1.613,0 -3.107,0.483 -4.48,1.449 -1.375,0.966 -2.6,2.305 -3.676,4.018 v 22.467 h -2.836 z M 263.61,32.401 c 1.672,0 3.222,0.29 4.644,0.867 a 10.42,10.42 0 0 1 3.704,2.524 c 1.046,1.105 1.863,2.465 2.451,4.077 0.588,1.613 0.88,3.466 0.88,5.558 0,0.438 -0.063,0.738 -0.194,0.896 -0.127,0.16 -0.331,0.239 -0.609,0.239 h -21.453 v 0.567 c 0,2.23 0.257,4.193 0.778,5.885 0.518,1.694 1.253,3.112 2.211,4.259 a 9.1,9.1 0 0 0 3.465,2.583 c 1.352,0.579 2.866,0.868 4.542,0.868 1.493,0 2.785,-0.165 3.884,-0.493 1.095,-0.329 2.014,-0.697 2.76,-1.106 0.75,-0.408 1.341,-0.776 1.778,-1.106 0.44,-0.329 0.757,-0.493 0.958,-0.493 0.257,0 0.458,0.1 0.599,0.299 l 0.775,0.956 c -0.479,0.597 -1.109,1.155 -1.898,1.672 -0.785,0.518 -1.662,0.961 -2.627,1.329 -0.968,0.37 -2.003,0.662 -3.109,0.882 a 17.175,17.175 0 0 1 -3.331,0.327 c -2.032,0 -3.884,-0.354 -5.556,-1.06 a 11.843,11.843 0 0 1 -4.306,-3.091 c -1.201,-1.356 -2.127,-3.014 -2.778,-4.975 -0.655,-1.961 -0.982,-4.207 -0.982,-6.737 0,-2.13 0.303,-4.097 0.912,-5.9 0.606,-1.803 1.482,-3.356 2.627,-4.661 1.148,-1.304 2.549,-2.325 4.215,-3.062 1.66,-0.736 3.547,-1.104 5.66,-1.104 z m 0.042,2.121 c -1.532,0 -2.905,0.239 -4.116,0.717 a 8.986,8.986 0 0 0 -3.148,2.061 c -0.884,0.896 -1.598,1.972 -2.148,3.226 -0.546,1.255 -0.908,2.659 -1.088,4.214 h 19.569 c 0,-1.594 -0.222,-3.024 -0.658,-4.288 -0.437,-1.264 -1.053,-2.334 -1.848,-3.211 a 8.023,8.023 0 0 0 -2.862,-2.017 c -1.117,-0.468 -2.349,-0.702 -3.701,-0.702 z m 28.516,28.561 c -2.01,0 -3.574,-0.556 -4.69,-1.672 -1.116,-1.116 -1.672,-2.838 -1.672,-5.169 V 35.926 h -4.271 a 0.795,0.795 0 0 1 -0.539,-0.179 c -0.141,-0.12 -0.211,-0.289 -0.211,-0.508 v -1.106 l 5.081,-0.358 0.708,-10.636 a 0.838,0.838 0 0 1 0.222,-0.478 0.677,0.677 0 0 1 0.518,-0.209 h 1.331 v 11.353 h 9.352 v 2.12 h -9.352 v 20.166 c 0,0.817 0.106,1.519 0.313,2.107 0.211,0.586 0.496,1.07 0.866,1.449 0.37,0.378 0.803,0.657 1.299,0.836 0.5,0.18 1.035,0.269 1.613,0.269 0.718,0 1.334,-0.106 1.856,-0.315 a 7.408,7.408 0 0 0 1.341,-0.687 c 0.38,-0.248 0.69,-0.477 0.926,-0.687 0.239,-0.209 0.43,-0.313 0.57,-0.313 0.158,0 0.317,0.099 0.475,0.298 l 0.778,1.255 c -0.757,0.836 -1.718,1.509 -2.884,2.017 a 8.97,8.97 0 0 1 -3.63,0.763 z m 15.594,-0.478 V 19.136 h 2.838 v 18.821 c 1.377,-1.693 2.943,-3.042 4.707,-4.048 1.76,-1.005 3.739,-1.509 5.929,-1.509 1.634,0 3.074,0.26 4.317,0.777 1.246,0.518 2.275,1.265 3.091,2.24 0.817,0.976 1.437,2.151 1.852,3.525 0.419,1.375 0.63,2.928 0.63,4.661 v 19.001 h -2.838 v -19 c 0,-2.789 -0.641,-4.974 -1.912,-6.558 -1.278,-1.584 -3.229,-2.375 -5.859,-2.375 -1.951,0 -3.764,0.503 -5.436,1.509 -1.672,1.006 -3.165,2.385 -4.482,4.138 v 22.287 z m 45.919,-30.204 c 1.672,0 3.222,0.29 4.644,0.867 a 10.42,10.42 0 0 1 3.704,2.524 c 1.046,1.105 1.863,2.465 2.451,4.077 0.588,1.613 0.88,3.466 0.88,5.558 0,0.438 -0.063,0.738 -0.194,0.896 -0.127,0.16 -0.331,0.239 -0.609,0.239 h -21.453 v 0.567 c 0,2.23 0.257,4.193 0.778,5.885 0.518,1.694 1.253,3.112 2.211,4.259 a 9.1,9.1 0 0 0 3.465,2.583 c 1.352,0.579 2.866,0.868 4.542,0.868 1.493,0 2.785,-0.165 3.884,-0.493 1.095,-0.329 2.014,-0.697 2.76,-1.106 0.75,-0.408 1.341,-0.776 1.778,-1.106 0.44,-0.329 0.757,-0.493 0.958,-0.493 0.257,0 0.458,0.1 0.599,0.299 l 0.775,0.956 c -0.479,0.597 -1.109,1.155 -1.898,1.672 -0.785,0.518 -1.662,0.961 -2.627,1.329 -0.968,0.37 -2.003,0.662 -3.109,0.882 a 17.175,17.175 0 0 1 -3.331,0.327 c -2.032,0 -3.884,-0.354 -5.556,-1.06 a 11.843,11.843 0 0 1 -4.306,-3.091 c -1.201,-1.356 -2.127,-3.014 -2.778,-4.975 -0.655,-1.961 -0.982,-4.207 -0.982,-6.737 0,-2.13 0.303,-4.097 0.912,-5.9 0.606,-1.803 1.482,-3.356 2.627,-4.661 1.148,-1.304 2.549,-2.325 4.215,-3.062 1.661,-0.736 3.548,-1.104 5.66,-1.104 z m 0.043,2.121 c -1.532,0 -2.905,0.239 -4.116,0.717 A 8.986,8.986 0 0 0 346.46,37.3 c -0.884,0.896 -1.598,1.972 -2.148,3.226 -0.546,1.255 -0.908,2.659 -1.088,4.214 h 19.569 c 0,-1.594 -0.222,-3.024 -0.658,-4.288 -0.437,-1.264 -1.053,-2.334 -1.848,-3.211 a 8.023,8.023 0 0 0 -2.862,-2.017 c -1.117,-0.468 -2.349,-0.702 -3.701,-0.702 z m 22.572,-1.643 V 51.88 c 0,2.79 0.637,4.975 1.919,6.558 1.278,1.584 3.225,2.377 5.845,2.377 1.936,0 3.746,-0.493 5.426,-1.479 1.679,-0.986 3.186,-2.355 4.524,-4.109 V 32.879 h 2.841 v 29.727 h -1.567 c -0.549,0 -0.834,-0.259 -0.856,-0.776 l -0.271,-4.422 c -1.373,1.713 -2.965,3.088 -4.771,4.123 -1.803,1.035 -3.813,1.553 -6.028,1.553 -1.655,0 -3.102,-0.259 -4.338,-0.776 -1.236,-0.517 -2.264,-1.264 -3.081,-2.241 -0.817,-0.975 -1.437,-2.151 -1.856,-3.524 -0.419,-1.375 -0.627,-2.928 -0.627,-4.662 V 32.879 Z m 47.8,3.704 c -0.141,0.279 -0.359,0.418 -0.658,0.418 -0.218,0 -0.503,-0.124 -0.852,-0.373 -0.349,-0.249 -0.806,-0.527 -1.373,-0.836 -0.567,-0.309 -1.264,-0.588 -2.091,-0.837 -0.827,-0.248 -1.838,-0.373 -3.031,-0.373 -1.077,0 -2.056,0.154 -2.943,0.462 -0.887,0.308 -1.644,0.72 -2.271,1.237 a 5.637,5.637 0 0 0 -1.465,1.802 4.7,4.7 0 0 0 -0.521,2.161 c 0,0.933 0.239,1.709 0.715,2.324 0.479,0.616 1.106,1.142 1.884,1.58 0.778,0.437 1.658,0.813 2.644,1.132 0.986,0.317 1.996,0.636 3.031,0.954 1.035,0.318 2.046,0.672 3.031,1.062 0.986,0.387 1.87,0.871 2.644,1.449 a 6.842,6.842 0 0 1 1.884,2.12 c 0.479,0.838 0.715,1.854 0.715,3.047 0,1.296 -0.232,2.5 -0.701,3.616 -0.468,1.116 -1.144,2.081 -2.032,2.898 -0.888,0.817 -1.975,1.463 -3.271,1.942 -1.296,0.479 -2.767,0.717 -4.422,0.717 -2.091,0 -3.894,-0.333 -5.408,-1 a 15.214,15.214 0 0 1 -4.063,-2.614 l 0.69,-1.016 c 0.099,-0.16 0.208,-0.278 0.327,-0.359 0.12,-0.079 0.289,-0.12 0.507,-0.12 0.261,0 0.577,0.16 0.958,0.479 0.377,0.319 0.87,0.662 1.479,1.03 0.606,0.37 1.363,0.713 2.271,1.032 0.905,0.319 2.025,0.477 3.359,0.477 1.253,0 2.359,-0.174 3.317,-0.523 0.954,-0.347 1.753,-0.82 2.391,-1.419 a 5.888,5.888 0 0 0 1.447,-2.105 6.657,6.657 0 0 0 0.493,-2.554 c 0,-0.996 -0.239,-1.822 -0.715,-2.48 -0.479,-0.657 -1.106,-1.213 -1.884,-1.672 a 13.15,13.15 0 0 0 -2.644,-1.165 c -0.986,-0.319 -2,-0.637 -3.046,-0.956 -1.046,-0.319 -2.063,-0.667 -3.049,-1.046 a 11.011,11.011 0 0 1 -2.644,-1.433 6.883,6.883 0 0 1 -1.88,-2.107 c -0.479,-0.827 -0.718,-1.856 -0.718,-3.092 0,-1.055 0.229,-2.071 0.687,-3.047 a 7.763,7.763 0 0 1 1.958,-2.568 c 0.845,-0.737 1.877,-1.325 3.091,-1.763 1.215,-0.437 2.581,-0.658 4.095,-0.658 1.81,0 3.419,0.263 4.824,0.788 1.405,0.525 2.693,1.328 3.869,2.409 z"
       id="path2"
       style="stroke-width:7.89549" />
    <path
       fill="#e75225"
       d="M 40.519,5.256 C 60.533,5.26 76.961,21.481 76.936,41.215 76.91,61.248 60.55,77.244 40.101,77.229 20.108,77.215 3.944,60.977 3.958,40.922 3.972,21.311 20.434,5.252 40.519,5.256 Z m -11.063,12.63 c 0.459,2.245 0.013,4.339 -0.665,6.399 -0.47,1.426 -1.119,2.8 -1.507,4.245 -0.639,2.382 -1.364,4.778 -1.63,7.215 -0.382,3.503 1.003,6.589 3.372,9.658 l -10.894,-2.28 c 0.019,0.342 -0.001,0.472 0.036,0.582 1.032,3.015 2.85,5.556 4.886,7.951 0.215,0.253 0.706,0.384 1.07,0.384 10.862,0.02 21.724,0.019 32.585,0.005 0.337,0 0.786,-0.064 0.993,-0.28 2.328,-2.433 4.108,-5.204 5.221,-8.695 l -11.532,2.245 c 0.761,-1.482 1.629,-2.785 2.128,-4.217 1.707,-4.899 1,-9.635 -1.451,-14.102 -1.967,-3.585 -3.781,-7.154 -2.8,-11.474 -2.077,2.039 -2.875,4.635 -3.381,7.31 -0.499,2.635 -0.792,5.309 -1.178,7.982 -0.055,-0.081 -0.126,-0.14 -0.137,-0.21 a 8.064,8.064 0 0 1 -0.101,-0.846 c -0.235,-4.379 -1.095,-8.598 -2.91,-12.627 -1.069,-2.372 -2.247,-4.797 -1.146,-7.626 -0.746,0.391 -1.419,0.779 -1.903,1.334 -1.442,1.655 -2.038,3.644 -2.191,5.821 -0.131,1.86 -0.311,3.729 -0.658,5.558 -0.365,1.922 -0.943,3.806 -2.241,5.572 -0.524,-3.775 -0.583,-7.507 -3.966,-9.904 z m 28.006,37.46 H 23.394 v 5.883 h 34.068 z m -27.313,8.922 c -0.028,4.899 4.991,8.549 11.195,8.284 5.141,-0.219 9.691,-4.24 9.3,-8.284 z"
       id="path4"
       style="stroke-width:7.89549" />
  </g>
</svg>
